# File created by Blade
# Date/Time:  Tue Apr 07 20:35:22 2015
#---------------------------------------------------------
:version 1.10
:name HOM
:units
  mass 1.0
  length 1.000000
  angle deg
:documentation
     Acclaim Skeleton File
:root
   axis xyz
   order TX TY TZ RX RY RZ
   position 0.000000 0.000000 0.000000
   orientation 0 0 0
:bonedata
   begin
      id 1
      name Spine_dum
      direction 0.000000 1.000000 0.000000
      length 4.885285
      axis 0.0 0.0 0.0 xyz
   end
   begin
      id 2
      name LeftUpLeg_dum
      direction 1.000000 0.000000 0.000000
      length 2.672193
      axis 0.0 0.0 0.0 xyz
   end
   begin
      id 3
      name RightUpLeg_dum
      direction -1.000000 0.000000 0.000000
      length 2.672193
      axis 0.0 0.0 0.0 xyz
   end
   begin
      id 4
      name Spine
      direction 0.000000 1.000000 0.000000
      length 0.000000
      axis 0.0 0.0 0.0 xyz
      dof rx ry rz
   end
   begin
      id 5
      name Spine_dum1
      direction 0.000000 1.000000 0.000000
      length 16.494159
      axis 0.0 0.0 0.0 xyz
   end
   begin
      id 6
      name Spine_dum2
      direction 0.000000 1.000000 0.000000
      length 10.663448
      axis 0.0 0.0 0.0 xyz
   end
   begin
      id 7
      name Spine_dum3
      direction 0.000000 1.000000 0.000000
      length 10.663448
      axis 0.0 0.0 0.0 xyz
   end
   begin
      id 8
      name Head
      direction 0.000000 1.000000 0.000000
      length 4.527550
      axis 0.0 0.0 0.0 xyz
      dof rx ry rz
   end
   begin
      id 9
      name LeftShoulder
      direction 1.000000 0.000000 0.000000
      length 7.531907
      axis 0.0 0.0 -90.0 xyz
      dof rx ry rz
   end
   begin
      id 10
      name LeftArm
      direction 1.000000 0.000000 0.000000
      length 10.229199
      axis 0.0 0.0 -90.0 xyz
      dof rx ry rz
   end
   begin
      id 11
      name LeftForeArm
      direction 1.000000 0.000000 0.000000
      length 8.673495
      axis 0.0 0.0 -90.0 xyz
      dof ry rz rx
   end
   begin
      id 12
      name LeftHand
      direction 0.000000 0.000000 0.000000
      length 0.000000
      axis 0.0 0.0 -90.0 xyz
      dof rx ry rz
   end
   begin
      id 13
      name LeftHand_dum1
      direction 0.000000 0.000000 0.000000
      length 0.000000
      axis 0.0 0.0 -90.0 xyz
   end
   begin
      id 14
      name LeftHand_dum2
      direction 1.000000 0.000000 0.000000
      length 3.937000
      axis 0.0 0.0 -90.0 xyz
   end
   begin
      id 15
      name LeftHandThumb1
      direction 0.000000 0.000000 1.000000
      length 3.937000
      axis 0.0 0.0 -90.0 xyz
      dof rx rz ry
   end
   begin
      id 16
      name RightShoulder
      direction -1.000000 0.000000 0.000000
      length 7.531907
      axis 0.0 0.0 90.0 xyz
      dof rx ry rz
   end
   begin
      id 17
      name RightArm
      direction -1.000000 0.000000 0.000000
      length 10.229199
      axis 0.0 0.0 90.0 xyz
      dof rx ry rz
   end
   begin
      id 18
      name RightForeArm
      direction -1.000000 0.000000 0.000000
      length 8.673495
      axis 0.0 0.0 90.0 xyz
      dof ry rz rx
   end
   begin
      id 19
      name RightHand
      direction 0.000000 0.000000 0.000000
      length 0.000000
      axis 0.0 0.0 90.0 xyz
      dof rx ry rz
   end
   begin
      id 20
      name RightHand_dum1
      direction 0.000000 0.000000 0.000000
      length 0.000000
      axis 0.0 0.0 90.0 xyz
   end
   begin
      id 21
      name RightHand_dum2
      direction -1.000000 0.000000 0.000000
      length 3.937000
      axis 0.0 0.0 90.0 xyz
   end
   begin
      id 22
      name RightHandThumb1
      direction 0.000000 0.000000 1.000000
      length 3.937000
      axis 0.0 0.0 90.0 xyz
      dof rx rz ry
   end
   begin
      id 23
      name LeftUpLeg
      direction 0.000000 -1.000000 0.000000
      length 16.263388
      axis 0.0 0.0 0.0 xyz
      dof rx ry rz
   end
   begin
      id 24
      name LeftLeg
      direction 0.000000 -1.000000 0.000000
      length 14.328163
      axis 0.0 0.0 0.0 xyz
      dof rx ry rz
   end
   begin
      id 25
      name LeftFoot
      direction 0.000000 -0.258819 0.965926
      length 5.031290
      axis 15.0 0.0 0.0 xyz
      dof rx ry rz
   end
   begin
      id 26
      name LeftToeBase
      direction 0.000000 0.000000 1.000000
      length 2.952750
      axis 0.0 0.0 0.0 xyz
      dof rx ry rz
   end
   begin
      id 27
      name RightUpLeg
      direction 0.000000 -1.000000 0.000000
      length 16.263388
      axis 0.0 0.0 0.0 xyz
      dof rx ry rz
   end
   begin
      id 28
      name RightLeg
      direction 0.000000 -1.000000 0.000000
      length 14.328163
      axis 0.0 0.0 0.0 xyz
      dof rx ry rz
   end
   begin
      id 29
      name RightFoot
      direction 0.000000 -0.258819 0.965926
      length 5.031290
      axis 15.0 0.0 0.0 xyz
      dof rx ry rz
   end
   begin
      id 30
      name RightToeBase
      direction 0.000000 0.000000 1.000000
      length 2.952750
      axis 0.0 0.0 0.0 xyz
      dof rx ry rz
   end
:hierarchy
   begin
      root Spine_dum LeftUpLeg_dum RightUpLeg_dum
      Spine_dum Spine
      LeftUpLeg_dum LeftUpLeg
      RightUpLeg_dum RightUpLeg
      Spine Spine_dum1 Spine_dum2 Spine_dum3
      Spine_dum1 Head
      Spine_dum2 LeftShoulder
      Spine_dum3 RightShoulder
      LeftShoulder LeftArm
      LeftArm LeftForeArm
      LeftForeArm LeftHand
      LeftHand LeftHand_dum1 LeftHand_dum2
      LeftHand_dum1 LeftHandThumb1
      RightShoulder RightArm
      RightArm RightForeArm
      RightForeArm RightHand
      RightHand RightHand_dum1 RightHand_dum2
      RightHand_dum1 RightHandThumb1
      LeftUpLeg LeftLeg
      LeftLeg LeftFoot
      LeftFoot LeftToeBase
      RightUpLeg RightLeg
      RightLeg RightFoot
      RightFoot RightToeBase
   end

# File created by Blade
# Date/Time:  Tue Apr 07 20:35:32 2015
# Frame Rate: 120.000 fps
#------------------------------------------------------
:FULLY-SPECIFIED
:DEGREES
1
root -0.377383 32.832739 -1.275975 9.871794 0.851563 0.244021
Spine -11.128019 -5.895238 -2.701505
Head 19.981392 -1.599697 -0.927590
LeftShoulder -19.485414 40.955797 20.394743
LeftArm 56.264214 -52.272994 -58.122721
LeftForeArm 4.474929 -0.000000 -1.704263
LeftHand 5.522471 -0.000000 3.431104
LeftHandThumb1 -26.253704 0.000000 33.147579
RightShoulder -7.251759 3.585345 -30.152744
RightArm 10.428804 15.759340 42.616275
RightForeArm -10.408004 -0.000000 1.808431
RightHand 5.817306 -0.000000 0.819121
RightHandThumb1 -24.326973 -0.000000 -32.862282
LeftUpLeg -4.329126 -3.685185 -0.239584
LeftLeg -4.021898 -0.000000 0.000000
LeftFoot -4.486044 8.819061 -14.679039
LeftToeBase -5.728974 -0.000000 0.000000
RightUpLeg -5.067237 -1.231137 1.549719
RightLeg -1.788714 -0.000000 0.000000
RightFoot -9.340289 -9.869914 6.440413
RightToeBase 2.547827 -0.000000 -0.000000
2
root -0.371039 32.832268 -1.274614 9.803079 0.893742 0.262823
Spine -11.052655 -5.934777 -2.695632
Head 19.957597 -1.586865 -0.966582
LeftShoulder -19.481648 40.969081 20.395003
LeftArm 56.213150 -52.177184 -58.007743
LeftForeArm 4.378598 -0.000000 -1.729684
LeftHand 5.491719 -0.000000 3.387065
LeftHandThumb1 -26.253704 0.000000 33.147579
RightShoulder -7.232313 3.572590 -30.152121
RightArm 10.439053 15.764746 42.618245
RightForeArm -10.455785 0.000000 1.803843
RightHand 5.662727 -0.000000 0.932414
RightHandThumb1 -24.326973 -0.000000 -32.862282
LeftUpLeg -4.276566 -3.688578 -0.273772
LeftLeg -3.990911 -0.000000 0.000000
LeftFoot -4.492718 8.803545 -14.668261
LeftToeBase -5.686060 -0.000000 0.000000
RightUpLeg -5.074317 -1.291531 1.527086
RightLeg -1.579417 -0.000000 0.000000
RightFoot -9.669853 -10.399281 6.474895
RightToeBase 2.800857 -0.000000 -0.000000
3
root -0.365936 32.831528 -1.272356 9.737288 0.939093 0.283727
Spine -10.981546 -5.970581 -2.699989
Head 19.934808 -1.590229 -0.992481
LeftShoulder -19.462029 40.978322 20.414443
LeftArm 56.221733 -52.122481 -57.984188
LeftForeArm 4.311550 0.000000 -1.766105
LeftHand 5.527432 -0.000000 3.363805
LeftHandThumb1 -26.253704 0.000000 33.147579
RightShoulder -7.230417 3.553264 -30.152493
RightArm 10.458311 15.715890 42.624834
RightForeArm -10.407095 -0.000000 1.792253
RightHand 5.573175 -0.000000 0.996558
RightHandThumb1 -24.326973 -0.000000 -32.862282
LeftUpLeg -4.225611 -3.680016 -0.310552
LeftLeg -3.959034 -0.000000 0.000000
LeftFoot -4.486238 8.772464 -14.622259
LeftToeBase -5.749375 -0.000000 0.000000
RightUpLeg -5.074389 -1.370770 1.502221
RightLeg -1.392927 -0.000000 0.000000
RightFoot -9.970708 -11.005085 6.527681
RightToeBase 3.022880 -0.000000 -0.000000
4
root -0.359935 32.831056 -1.268671 9.682045 0.993998 0.308124
Spine -10.933416 -6.006640 -2.700867
Head 19.935804 -1.598622 -1.027531
LeftShoulder -19.429057 40.986940 20.442820
LeftArm 56.242139 -52.073769 -57.983971
LeftForeArm 4.308133 -0.000000 -1.788155
LeftHand 5.531397 0.000000 3.314982
LeftHandThumb1 -26.253704 0.000000 33.147579
RightShoulder -7.222269 3.512220 -30.156272
RightArm 10.474034 15.714393 42.630128
RightForeArm -10.387805 -0.000000 1.774377
RightHand 5.564856 0.000000 1.032627
RightHandThumb1 -24.326973 -0.000000 -32.862282
LeftUpLeg -4.189101 -3.667345 -0.352118
LeftLeg -3.918373 -0.000000 0.000000
LeftFoot -4.480514 8.740659 -14.534675
LeftToeBase -5.686272 -0.000000 0.000000
RightUpLeg -5.081903 -1.482742 1.472973
RightLeg -1.217186 -0.000000 0.000000
RightFoot -10.225635 -11.631078 6.539442
RightToeBase 2.885698 -0.000000 -0.000000
5
root -0.353578 32.831035 -1.263439 9.617334 1.061357 0.332223
Spine -10.875977 -6.058473 -2.697108
Head 19.939320 -1.600578 -1.058304
LeftShoulder -19.398152 40.988870 20.456323
LeftArm 56.338793 -52.082453 -58.064486
LeftForeArm 4.409683 -0.000000 -1.835082
LeftHand 5.504400 -0.000000 3.219694
LeftHandThumb1 -26.253704 0.000000 33.147579
RightShoulder -7.203903 3.518550 -30.165171
RightArm 10.435378 15.688064 42.624148
RightForeArm -10.364009 -0.000000 1.788818
RightHand 5.549995 -0.000000 1.062155
RightHandThumb1 -24.326973 -0.000000 -32.862282
LeftUpLeg -4.142201 -3.676066 -0.393610
LeftLeg -3.876280 -0.000000 0.000000
LeftFoot -4.462450 8.716361 -14.481063
LeftToeBase -5.622626 -0.000000 0.000000
RightUpLeg -5.063674 -1.636641 1.445569
RightLeg -1.070943 -0.000000 0.000000
RightFoot -10.426489 -12.099698 6.516656
RightToeBase 2.972479 -0.000000 -0.000000
6
root -0.348257 32.831517 -1.258272 9.566279 1.118098 0.347254
Spine -10.838745 -6.089257 -2.692203
Head 19.950042 -1.618973 -1.074000
LeftShoulder -19.362526 40.984598 20.494732
LeftArm 56.330285 -52.009681 -58.034364
LeftForeArm 4.398108 -0.000000 -1.858137
LeftHand 5.496932 -0.000000 3.211982
LeftHandThumb1 -26.253704 0.000000 33.147579
RightShoulder -7.201184 3.510302 -30.164338
RightArm 10.427708 15.681080 42.619306
RightForeArm -10.321016 -0.000000 1.754797
RightHand 5.768583 -0.000000 1.043128
RightHandThumb1 -24.326973 -0.000000 -32.862282
LeftUpLeg -4.104538 -3.675644 -0.425083
LeftLeg -3.841495 -0.000000 0.000000
LeftFoot -4.452288 8.700788 -14.415495
LeftToeBase -5.692091 -0.000000 0.000000
RightUpLeg -5.054267 -1.771044 1.425805
RightLeg -0.938616 -0.000000 0.000000
RightFoot -10.591948 -12.402557 6.550607
RightToeBase 3.090284 -0.000000 -0.000000
